M48
;Layer_Color=9474304
;FILE_FORMAT=4:4
METRIC
;TYPE=PLATED
T01F00S00C0.7620
T02F00S00C1.0200
T03F00S00C1.5000
%
T01
X01008890Y00464820
Y00490220
Y00515620
Y00541020
Y00566420
Y00591820
Y00617220
Y00642620
Y00668020
Y00693420
Y00718820
Y00744220
Y00769620
X00770890
Y00744220
Y00718820
Y00693420
Y00668020
Y00642620
Y00617220
Y00591820
Y00566420
Y00541020
Y00515620
Y00490220
Y00464820
Y00795020
Y00820420
Y00845820
Y00871220
Y00896620
Y00922020
X01008890
Y00896620
Y00871220
Y00845820
Y00820420
Y00795020
T02
X00822960Y00116840
Y00142240
Y00167640
Y00193040
Y00218440
Y00243840
Y00269240
Y00294640
X00975360
Y00269240
Y00243840
Y00218440
Y00193040
Y00167640
Y00142240
Y00116840
X00590550Y00508000
Y00648000
X00400550
Y00508000
T03
X00139530Y00143510
X00214530
Y00219710
X00139530
X00135720Y00358140
X00210720
Y00434340
X00135720
X00136990Y00593090
X00211990
Y00669290
X00136990
M30
