G04*
G04 #@! TF.GenerationSoftware,Altium Limited,Altium Designer,26.3.0 (6)*
G04*
G04 Layer_Physical_Order=2*
G04 Layer_Color=16711680*
%FSLAX44Y44*%
%MOMM*%
G71*
G04*
G04 #@! TF.SameCoordinates,EF02F3FB-16C9-4049-808C-296C4551670C*
G04*
G04*
G04 #@! TF.FilePolarity,Positive*
G04*
G01*
G75*
%ADD10C,0.2540*%
%ADD11C,2.0400*%
%ADD12C,2.2500*%
G04:AMPARAMS|DCode=13|XSize=2.25mm|YSize=2.25mm|CornerRadius=0.5625mm|HoleSize=0mm|Usage=FLASHONLY|Rotation=270.000|XOffset=0mm|YOffset=0mm|HoleType=Round|Shape=RoundedRectangle|*
%AMROUNDEDRECTD13*
21,1,2.2500,1.1250,0,0,270.0*
21,1,1.1250,2.2500,0,0,270.0*
1,1,1.1250,-0.5625,-0.5625*
1,1,1.1250,-0.5625,0.5625*
1,1,1.1250,0.5625,0.5625*
1,1,1.1250,0.5625,-0.5625*
%
%ADD13ROUNDEDRECTD13*%
%ADD14C,1.5240*%
%ADD15R,1.5240X1.5240*%
%ADD16R,2.0400X2.0400*%
D10*
X522243Y439692D02*
X590550Y508000D01*
X522243Y390163D02*
Y439692D01*
X317320Y234770D02*
X385628Y303078D01*
X435158D01*
X783770Y204650D02*
X822960Y243840D01*
X129997Y204650D02*
X783770D01*
X124470Y210177D02*
X129997Y204650D01*
X124470Y210177D02*
Y229243D01*
X129997Y234770D01*
X317320D01*
X435158Y303078D02*
X522243Y390163D01*
X127893Y199570D02*
X133170D01*
X125788Y194490D02*
X130630D01*
X114310Y205968D02*
X125788Y194490D01*
X119390Y208073D02*
X127893Y199570D01*
X114310Y233451D02*
X115570Y234711D01*
X119390Y231347D02*
X127893Y239850D01*
X135077D02*
X138241Y243014D01*
X114310Y205968D02*
Y233451D01*
X130630Y194490D02*
X134620Y190500D01*
X127893Y239850D02*
X135077D01*
X133170Y199570D02*
X134620Y198120D01*
X633730Y403424D02*
X743784Y293370D01*
X119390Y208073D02*
Y231347D01*
X633730Y403424D02*
Y537210D01*
X115570Y234711D02*
Y284480D01*
X743784Y293370D02*
X821690D01*
X862818Y254782D02*
X975360Y142240D01*
X862818Y254782D02*
Y287755D01*
X759460Y391112D02*
X862818Y287755D01*
X759460Y391112D02*
Y707390D01*
X770890Y718820D01*
X836970Y282862D02*
Y306418D01*
X754380Y389008D02*
X836970Y306418D01*
X754380Y389008D02*
Y718475D01*
X766155Y730250D01*
X773084D01*
X782320Y739485D01*
Y910590D01*
X872978Y295422D02*
X975360Y193040D01*
X872978Y295422D02*
Y591332D01*
X867898Y275102D02*
Y571012D01*
Y275102D02*
X975360Y167640D01*
X770890Y668020D02*
X867898Y571012D01*
X770890Y693420D02*
X872978Y591332D01*
X770890Y922020D02*
X782320Y910590D01*
X823348Y269240D02*
X836970Y282862D01*
X987539Y302274D02*
Y653853D01*
X975360Y294640D02*
Y650655D01*
X992619Y304379D02*
Y651749D01*
X987539Y302274D02*
X989370Y300443D01*
X978777Y278244D02*
X989370Y288837D01*
X992619Y284901D02*
X994450Y286733D01*
X992619Y304379D02*
X994450Y302547D01*
Y286733D02*
Y302547D01*
X989370Y288837D02*
Y300443D01*
X975360Y116840D02*
X1035560Y177040D01*
Y759115D01*
X1013624Y781050D02*
X1035560Y759115D01*
X1004156Y781050D02*
X1013624D01*
X997460Y774354D02*
X1004156Y781050D01*
X997460Y764885D02*
Y774354D01*
Y764885D02*
X1006695Y755650D01*
X1013624D01*
X1025400Y743875D01*
Y642965D02*
Y743875D01*
X1015240Y632805D02*
X1025400Y642965D01*
X1015240Y627007D02*
Y632805D01*
X1008890Y620657D02*
X1015240Y627007D01*
X1008890Y617220D02*
Y620657D01*
X1020320Y756139D02*
X1030480Y745979D01*
Y640861D02*
Y745979D01*
X1020320Y756139D02*
Y758190D01*
Y263400D02*
Y630701D01*
X1030480Y640861D01*
X975360Y243840D02*
X992619Y261099D01*
Y284901D01*
X975360Y269240D02*
X978777Y272657D01*
Y278244D01*
X987539Y653853D02*
X997460Y663774D01*
Y672755D01*
X1004156Y679450D01*
X1013624D01*
X1020320Y672755D01*
Y663286D02*
Y672755D01*
X1011085Y654050D02*
X1020320Y663286D01*
X1011085Y644815D02*
Y654050D01*
X1008890Y642620D02*
X1011085Y644815D01*
X992380Y676910D02*
X1008890Y693420D01*
X975360Y650655D02*
X992380Y667674D01*
Y676910D01*
X992619Y651749D02*
X1008890Y668020D01*
X975360Y218440D02*
X1020320Y263400D01*
X1008890Y769620D02*
X1020320Y758190D01*
X821690Y293370D02*
X822960Y294640D01*
X590550Y580390D02*
X633730Y537210D01*
X774700Y246380D02*
X821690Y293370D01*
X674570Y922020D02*
X770890D01*
X606065Y853515D02*
X674570Y922020D01*
X531085Y716505D02*
X606065Y791485D01*
Y853515D01*
X590550Y580390D02*
Y648000D01*
X774700Y213578D02*
Y246380D01*
X822960Y269240D02*
X823348D01*
X92710Y502702D02*
X94198Y504190D01*
X92710Y116840D02*
Y502702D01*
X94198Y504190D02*
X200660D01*
X400550Y648000D02*
X469055Y716505D01*
X531085D01*
X329565Y142240D02*
X822960D01*
X299085Y172720D02*
X329565Y142240D01*
X789504Y189230D02*
X793314Y193040D01*
X315396Y189230D02*
X789504D01*
X306506Y198120D02*
X315396Y189230D01*
X400550Y508000D02*
X590550D01*
X862548Y116840D02*
X975360D01*
X861060Y118328D02*
X862548Y116840D01*
X861060Y118328D02*
Y205740D01*
X822960Y243840D02*
X861060Y205740D01*
X773212Y212090D02*
X774700Y213578D01*
X299720Y212090D02*
X773212D01*
X292100Y219710D02*
X299720Y212090D01*
X793314Y193040D02*
X822960D01*
X134620Y198120D02*
X306506D01*
X138241Y243014D02*
X257765D01*
X271536Y256784D01*
X300990Y190500D02*
X323850Y167640D01*
X134620Y190500D02*
X300990D01*
X139530Y219710D02*
X214530D01*
X292100D01*
X271536Y256784D02*
Y609744D01*
X211990Y669290D02*
X271536Y609744D01*
X848360Y111760D02*
Y193040D01*
X822960Y218440D02*
X848360Y193040D01*
X830580Y93980D02*
X848360Y111760D01*
X115570Y93980D02*
X830580D01*
X241200Y116840D02*
X822960D01*
X92710D02*
X115570Y93980D01*
X200660Y504190D02*
X211990Y515520D01*
Y593090D01*
X323850Y167640D02*
X822960D01*
X115570Y284480D02*
X119380Y288290D01*
X208280D01*
X210720Y290730D01*
Y358140D01*
X134620Y172720D02*
X299085D01*
X104140Y203200D02*
X134620Y172720D01*
X139530Y143510D02*
X214530D01*
X104140Y203200D02*
Y373380D01*
X127000Y396240D01*
X209232D01*
X210720Y397728D01*
Y434340D01*
X136990Y669290D02*
X211990D01*
X136990Y593090D02*
X211990D01*
X135720Y434340D02*
X210720D01*
X135720Y358140D02*
X210720D01*
X214530Y143510D02*
X241200Y116840D01*
D11*
X590550Y648000D02*
D03*
X400550D02*
D03*
X590550Y508000D02*
D03*
X400550D02*
D03*
X975360Y294640D02*
D03*
Y269240D02*
D03*
Y243840D02*
D03*
Y218440D02*
D03*
Y193040D02*
D03*
Y167640D02*
D03*
Y142240D02*
D03*
Y116840D02*
D03*
X822960D02*
D03*
Y269240D02*
D03*
Y243840D02*
D03*
Y218440D02*
D03*
Y193040D02*
D03*
Y167640D02*
D03*
Y142240D02*
D03*
D12*
X139530Y143510D02*
D03*
X214530D02*
D03*
X135720Y358140D02*
D03*
X210720D02*
D03*
X136990Y593090D02*
D03*
X211990D02*
D03*
D13*
X139530Y219710D02*
D03*
X214530D02*
D03*
X135720Y434340D02*
D03*
X210720D02*
D03*
X136990Y669290D02*
D03*
X211990D02*
D03*
D14*
X770890Y922020D02*
D03*
Y871220D02*
D03*
Y896620D02*
D03*
Y845820D02*
D03*
Y515620D02*
D03*
Y591820D02*
D03*
Y566420D02*
D03*
Y541020D02*
D03*
Y490220D02*
D03*
Y617220D02*
D03*
Y718820D02*
D03*
Y668020D02*
D03*
Y769620D02*
D03*
Y795020D02*
D03*
Y820420D02*
D03*
Y693420D02*
D03*
Y642620D02*
D03*
Y744220D02*
D03*
Y464820D02*
D03*
X1008890Y490220D02*
D03*
Y922020D02*
D03*
Y896620D02*
D03*
Y871220D02*
D03*
Y845820D02*
D03*
Y820420D02*
D03*
Y795020D02*
D03*
Y769620D02*
D03*
Y744220D02*
D03*
Y718820D02*
D03*
Y693420D02*
D03*
Y668020D02*
D03*
Y642620D02*
D03*
Y617220D02*
D03*
Y591820D02*
D03*
Y566420D02*
D03*
Y541020D02*
D03*
Y515620D02*
D03*
D15*
Y464820D02*
D03*
D16*
X822960Y294640D02*
D03*
M02*
