G04*
G04 #@! TF.GenerationSoftware,Altium Limited,Altium Designer,26.3.0 (6)*
G04*
G04 Layer_Color=16711935*
%FSLAX44Y44*%
%MOMM*%
G71*
G04*
G04 #@! TF.SameCoordinates,EF02F3FB-16C9-4049-808C-296C4551670C*
G04*
G04*
G04 #@! TF.FilePolarity,Negative*
G04*
G01*
G75*
%ADD17C,2.2432*%
%ADD18C,2.4532*%
G04:AMPARAMS|DCode=19|XSize=2.4532mm|YSize=2.4532mm|CornerRadius=0.6641mm|HoleSize=0mm|Usage=FLASHONLY|Rotation=270.000|XOffset=0mm|YOffset=0mm|HoleType=Round|Shape=RoundedRectangle|*
%AMROUNDEDRECTD19*
21,1,2.4532,1.1250,0,0,270.0*
21,1,1.1250,2.4532,0,0,270.0*
1,1,1.3282,-0.5625,-0.5625*
1,1,1.3282,-0.5625,0.5625*
1,1,1.3282,0.5625,0.5625*
1,1,1.3282,0.5625,-0.5625*
%
%ADD19ROUNDEDRECTD19*%
%ADD20C,1.7272*%
%ADD21R,1.7272X1.7272*%
%ADD22R,2.2432X2.2432*%
D17*
X590550Y648000D02*
D03*
X400550D02*
D03*
X590550Y508000D02*
D03*
X400550D02*
D03*
X975360Y294640D02*
D03*
Y269240D02*
D03*
Y243840D02*
D03*
Y218440D02*
D03*
Y193040D02*
D03*
Y167640D02*
D03*
Y142240D02*
D03*
Y116840D02*
D03*
X822960D02*
D03*
Y269240D02*
D03*
Y243840D02*
D03*
Y218440D02*
D03*
Y193040D02*
D03*
Y167640D02*
D03*
Y142240D02*
D03*
D18*
X139530Y143510D02*
D03*
X214530D02*
D03*
X135720Y358140D02*
D03*
X210720D02*
D03*
X136990Y593090D02*
D03*
X211990D02*
D03*
D19*
X139530Y219710D02*
D03*
X214530D02*
D03*
X135720Y434340D02*
D03*
X210720D02*
D03*
X136990Y669290D02*
D03*
X211990D02*
D03*
D20*
X770890Y922020D02*
D03*
Y871220D02*
D03*
Y896620D02*
D03*
Y845820D02*
D03*
Y515620D02*
D03*
Y591820D02*
D03*
Y566420D02*
D03*
Y541020D02*
D03*
Y490220D02*
D03*
Y617220D02*
D03*
Y718820D02*
D03*
Y668020D02*
D03*
Y769620D02*
D03*
Y795020D02*
D03*
Y820420D02*
D03*
Y693420D02*
D03*
Y642620D02*
D03*
Y744220D02*
D03*
Y464820D02*
D03*
X1008890Y490220D02*
D03*
Y922020D02*
D03*
Y896620D02*
D03*
Y871220D02*
D03*
Y845820D02*
D03*
Y820420D02*
D03*
Y795020D02*
D03*
Y769620D02*
D03*
Y744220D02*
D03*
Y718820D02*
D03*
Y693420D02*
D03*
Y668020D02*
D03*
Y642620D02*
D03*
Y617220D02*
D03*
Y591820D02*
D03*
Y566420D02*
D03*
Y541020D02*
D03*
Y515620D02*
D03*
D21*
Y464820D02*
D03*
D22*
X822960Y294640D02*
D03*
M02*
