%FSDAX23Y23*%
%MOMM*%
%SFA1B1*%

%IPPOS*%
%ADD9500C,0.650000*%
%ADD9501C,0.700000*%
%ADD9502C,0.800000*%
%ADD9503C,1.000000*%
%ADD9504C,1.100000*%
%ADD9505C,1.300000*%
%ADD9506C,1.450000*%
%ADD9507C,1.500000*%
%ADD9508C,3.000000*%
%LNpcb_pokebot-1*%
%LPD*%
G54D9500*
X91689Y72519D03*
Y74219D03*
X98169Y74229D03*
Y72529D03*
G54D9501*
X84959Y70779D03*
Y75779D03*
X103759Y75529D03*
Y70529D03*
X110739Y70779D03*
Y75779D03*
G54D9502*
X117349Y71879D03*
Y73879D03*
G54D9503*
X88389Y89149D03*
Y91689D03*
Y94229D03*
Y96769D03*
Y99309D03*
Y101849D03*
Y104389D03*
Y106929D03*
Y109469D03*
Y112009D03*
Y114549D03*
Y117089D03*
X113789D03*
Y114549D03*
Y112009D03*
Y109469D03*
Y106929D03*
Y104389D03*
Y101849D03*
Y99309D03*
Y96769D03*
Y94229D03*
Y91689D03*
Y89149D03*
Y119629D03*
Y122169D03*
Y124709D03*
X88389D03*
Y122169D03*
Y119629D03*
G54D9504*
X124839Y100959D03*
Y103499D03*
Y106039D03*
G54D9505*
X133879Y81409D03*
X137409Y84949D03*
X140949Y88489D03*
X142359Y99139D03*
Y104140D03*
Y109139D03*
G54D9506*
X75309Y92849D03*
Y113789D03*
G54D9507*
X53199Y98339D03*
Y103339D03*
X60699D03*
Y98339D03*
X128259Y122649D03*
X131799Y119119D03*
X137099Y124419D03*
X133559Y127959D03*
G54D9508*
X100199Y52199D03*
X100330Y148209D03*
M02*