%FSDAX23Y23*%
%MOMM*%
%SFA1B1*%

%IPPOS*%
%AMD14*
4,1,8,-1.125220,0.561340,-1.125220,-0.561340,-0.561340,-1.125220,0.561340,-1.125220,1.125220,-0.561340,1.125220,0.561340,0.561340,1.125220,-0.561340,1.125220,-1.125220,0.561340,0.0*
1,1,1.125000,-0.561340,0.561340*
1,1,1.125000,-0.561340,-0.561340*
1,1,1.125000,0.561340,-0.561340*
1,1,1.125000,0.561340,0.561340*
%
%AMD15*
4,1,8,-0.650240,0.325120,-0.650240,-0.325120,-0.325120,-0.650240,0.325120,-0.650240,0.650240,-0.325120,0.650240,0.325120,0.325120,0.650240,-0.325120,0.650240,-0.650240,0.325120,0.0*
1,1,0.650000,-0.325120,0.325120*
1,1,0.650000,-0.325120,-0.325120*
1,1,0.650000,0.325120,-0.325120*
1,1,0.650000,0.325120,0.325120*
%
%AMD18*
4,1,8,0.345440,-1.033780,1.033780,-0.345440,1.033780,0.345440,0.345440,1.033780,-0.345440,1.033780,-1.033780,0.345440,-1.033780,-0.345440,-0.345440,-1.033780,0.345440,-1.033780,0.0*
1,1,0.975000,0.000000,-0.690880*
1,1,0.975000,0.690880,0.000000*
1,1,0.975000,0.000000,0.690880*
1,1,0.975000,-0.690880,0.000000*
%
%AMD27*
4,1,8,1.193800,0.398780,0.398780,1.193800,-0.398780,1.193800,-1.193800,0.398780,-1.193800,-0.398780,-0.398780,-1.193800,0.398780,-1.193800,1.193800,-0.398780,1.193800,0.398780,0.0*
1,1,1.125000,0.795020,0.000000*
1,1,1.125000,0.000000,0.795020*
1,1,1.125000,-0.795020,0.000000*
1,1,1.125000,0.000000,-0.795020*
%
%AMD29*
4,1,8,0.975360,-0.487680,0.975360,0.487680,0.487680,0.975360,-0.487680,0.975360,-0.975360,0.487680,-0.975360,-0.487680,-0.487680,-0.975360,0.487680,-0.975360,0.975360,-0.487680,0.0*
1,1,0.975000,0.487680,-0.487680*
1,1,0.975000,0.487680,0.487680*
1,1,0.975000,-0.487680,0.487680*
1,1,0.975000,-0.487680,-0.487680*
%
%ADD10C,1.142998*%
%ADD11C,2.999994*%
%ADD12C,2.199996*%
%ADD13R,2.199996X2.199996*%
G04~CAMADD=14~8~0.0~0.0~885.8~885.8~221.5~0.0~15~0.0~0.0~0.0~0.0~0~0.0~0.0~0.0~0.0~0~0.0~0.0~0.0~90.0~886.0~886.0*
%ADD14D14*%
G04~CAMADD=15~8~0.0~0.0~511.8~511.8~128.0~0.0~15~0.0~0.0~0.0~0.0~0~0.0~0.0~0.0~0.0~0~0.0~0.0~0.0~90.0~512.0~512.0*
%ADD15D15*%
%ADD16C,1.299997*%
%ADD17C,1.949996*%
G04~CAMADD=18~8~0.0~0.0~767.7~767.7~191.9~0.0~15~0.0~0.0~0.0~0.0~0~0.0~0.0~0.0~0.0~0~0.0~0.0~0.0~225.0~928.0~927.0*
%ADD18D18*%
%ADD19R,1.699997X1.699997*%
%ADD20R,1.199998X1.199998*%
%ADD21C,2.249995*%
%ADD22C,1.999996*%
%ADD23C,1.699997*%
%ADD24C,1.199998*%
%ADD25R,1.149998X1.149998*%
%ADD26C,1.149998*%
G04~CAMADD=27~8~0.0~0.0~885.8~885.8~221.5~0.0~15~0.0~0.0~0.0~0.0~0~0.0~0.0~0.0~0.0~0~0.0~0.0~0.0~315.0~1070.0~1069.0*
%ADD27D27*%
%ADD28R,1.999996X1.999996*%
G04~CAMADD=29~8~0.0~0.0~767.7~767.7~191.9~0.0~15~0.0~0.0~0.0~0.0~0~0.0~0.0~0.0~0.0~0~0.0~0.0~0.0~270.0~768.0~768.0*
%ADD29D29*%
%LNpcb_pokebot-1*%
%LPD*%
G36*
X102367Y151450D02*
X104604Y151303D01*
X106832Y151059*
X109047Y150719*
X111245Y150281*
X113423Y149749*
X115574Y149121*
X117697Y148401*
X119786Y147588*
X121837Y146686*
X123848Y145694*
X125813Y144616*
X127729Y143454*
X129593Y142208*
X131400Y140883*
X133148Y139480*
X134833Y138002*
X136452Y136452*
X137663Y135187*
X137669Y135118*
X136690Y134661*
X136364Y134987*
X136140Y135158*
X135879Y135266*
X135600Y135303*
X130920*
X130641Y135266*
X130380Y135158*
X130156Y134987*
X120774Y125605*
X120603Y125381*
X120495Y125120*
X120458Y124841*
Y122786*
X118615Y120943*
X118444Y120719*
X118336Y120459*
X118299Y120179*
Y108143*
X116109Y105953*
X115234Y106496*
X115291Y106786*
Y107081*
X115234Y107371*
X115121Y107644*
X114957Y107890*
X114800Y108204*
X114957Y108517*
X115121Y108763*
X115234Y109036*
X115291Y109326*
Y109621*
X115234Y109911*
X115121Y110184*
X114807Y110744*
X115121Y111303*
X115234Y111576*
X115291Y111866*
Y112161*
X115234Y112451*
X115121Y112724*
X114803Y113290*
X114957Y113597*
X115121Y113843*
X115234Y114116*
X115291Y114406*
Y114701*
X115234Y114991*
X115121Y115264*
X114807Y115824*
X115121Y116383*
X115234Y116656*
X115291Y116946*
Y117241*
X115234Y117531*
X115121Y117804*
X114807Y118364*
X115121Y118923*
X115234Y119196*
X115291Y119486*
Y119781*
X115234Y120071*
X115121Y120344*
X114957Y120590*
X114755Y120886*
X114795Y121403*
X114960Y121689*
X115045Y122008*
Y122047*
X113792*
X112537*
Y122008*
X112623Y121689*
X112788Y121403*
X112828Y120886*
X112626Y120590*
X112462Y120344*
X112349Y120071*
X112291Y119781*
Y119486*
X112349Y119196*
X112462Y118923*
X112776Y118364*
X112462Y117804*
X112349Y117531*
X112291Y117241*
Y116946*
X112349Y116656*
X112462Y116383*
X112776Y115824*
X112462Y115264*
X112349Y114991*
X112291Y114701*
Y114406*
X112349Y114116*
X112462Y113843*
X112780Y113277*
X112626Y112970*
X112462Y112724*
X112349Y112451*
X112291Y112161*
Y111866*
X112349Y111576*
X112462Y111303*
X112776Y110744*
X112462Y110184*
X112349Y109911*
X112291Y109621*
Y109326*
X112349Y109036*
X112462Y108763*
X112626Y108517*
X112783Y108204*
X112626Y107890*
X112462Y107644*
X112349Y107371*
X112291Y107081*
Y106786*
X112349Y106496*
X112462Y106223*
X112626Y105977*
X112780Y105670*
X112462Y105104*
X112349Y104831*
X112291Y104541*
Y104246*
X112349Y103956*
X112462Y103683*
X112780Y103117*
X112626Y102810*
X112462Y102564*
X112349Y102291*
X112291Y102001*
Y101706*
X112349Y101416*
X112462Y101143*
X112776Y100584*
X112462Y100024*
X112349Y99751*
X112291Y99461*
Y99166*
X112349Y98876*
X112462Y98603*
X112626Y98357*
X112783Y98044*
X112626Y97730*
X112462Y97484*
X112349Y97211*
X112291Y96921*
Y96626*
X112349Y96336*
X112462Y96063*
X112776Y95504*
X112462Y94944*
X112349Y94671*
X112291Y94381*
Y94086*
X112349Y93796*
X112462Y93523*
X112776Y92964*
X112462Y92404*
X112349Y92131*
X112291Y91841*
Y91669*
Y91546*
Y90653*
Y87653*
X115291*
Y90653*
Y91841*
X115234Y92131*
X115121Y92404*
X114807Y92964*
X115121Y93523*
X115234Y93796*
X115291Y94086*
Y94381*
X115234Y94671*
X115121Y94944*
X114807Y95504*
X115121Y96063*
X115234Y96336*
X115291Y96626*
Y96921*
X115234Y97211*
X115164Y97381*
X115341Y97865*
X115595Y98306*
X115696Y98397*
X115809*
X116088Y98434*
X116349Y98541*
X116573Y98713*
X117614Y99755*
X118553Y99366*
Y84775*
X114868Y81090*
X106045*
X105765Y81053*
X105504Y80945*
X105280Y80774*
X102994Y78488*
X102822Y78264*
X102715Y78003*
X102678Y77724*
Y76624*
X102658*
Y75675*
X102293Y75309*
X99251*
Y76962*
X99214Y77241*
X99106Y77502*
X98935Y77726*
X94298Y82362*
Y85531*
X96395Y87627*
X96566Y87851*
X96674Y88112*
X96711Y88392*
Y98425*
X96674Y98704*
X96566Y98965*
X96395Y99189*
X94044Y101539*
Y103438*
X95633Y105026*
X95804Y105250*
X95912Y105511*
X95949Y105791*
Y114173*
X95912Y114452*
X95804Y114713*
X95633Y114937*
X94298Y116271*
Y123063*
X94261Y123342*
X94153Y123603*
X93982Y123827*
X92331Y125478*
X92107Y125649*
X91846Y125757*
X91567Y125794*
X89432*
X89348Y125879*
X89102Y126043*
X88829Y126156*
X88539Y126213*
X88244*
X87954Y126156*
X87681Y126043*
X87435Y125879*
X87226Y125670*
X87062Y125424*
X86949Y125151*
X86891Y124861*
Y124566*
X86949Y124276*
X87062Y124003*
X87226Y123757*
X87428Y123460*
X87388Y122943*
X87223Y122657*
X87137Y122339*
Y122301*
X88392*
X89645*
Y122339*
X89560Y122657*
X89964Y123480*
X90125Y123633*
X91119*
X92137Y122615*
Y115824*
X92174Y115544*
X92282Y115283*
X92453Y115059*
X93788Y113725*
Y106238*
X92199Y104650*
X92028Y104426*
X91920Y104165*
X91883Y103886*
Y101092*
X91920Y100812*
X92028Y100551*
X92199Y100327*
X94550Y97977*
Y88839*
X92453Y86743*
X92282Y86519*
X92174Y86258*
X92137Y85979*
Y81915*
X92174Y81635*
X92282Y81374*
X92453Y81150*
X97090Y76514*
Y75297*
X92139*
X90894Y76543*
X90670Y76714*
X90409Y76822*
X90130Y76859*
X86062*
Y76878*
X83862*
Y74678*
X86062*
Y74698*
X89682*
X90266Y74114*
X90864Y73345*
Y72644*
X91694*
X92522*
Y73136*
X97341*
Y72655*
X98171*
X98999*
Y73148*
X102740*
X103020Y73185*
X103281Y73293*
X103505Y73464*
X104465Y74424*
X104858*
Y76624*
X105103Y77539*
X106492Y78929*
X115316*
X115595Y78966*
X115856Y79074*
X116080Y79245*
X120077Y83242*
X121093Y82821*
Y78933*
X117458Y75299*
X116215Y76543*
X115991Y76714*
X115730Y76822*
X115450Y76859*
X111843*
Y76878*
X109643*
Y74678*
X111843*
Y74698*
X115003*
X116197Y73503*
X116219Y73341*
X116302Y73140*
X116434Y72968*
X116567Y72598*
X116505Y72230*
X116446Y72009*
X117348*
X118249*
X118190Y72230*
X118128Y72598*
X118261Y72968*
X118393Y73140*
X118407Y73174*
X118537Y73320*
X122938Y77721*
X123109Y77945*
X123217Y78206*
X123254Y78486*
Y99374*
X123495Y99614*
X124662*
X125538Y98739*
Y85598*
X125575Y85318*
X125683Y85057*
X125854Y84833*
X127886Y82801*
X128110Y82630*
X128371Y82522*
X128651Y82485*
X131625*
X131912Y82265*
X132403Y81559*
Y81269*
X132410Y81233*
X125346Y74170*
X125174Y73946*
X125067Y73685*
X125030Y73406*
Y69062*
X124993Y69025*
X113933*
X113653Y68988*
X113393Y68880*
X113169Y68709*
X111707Y67247*
X93143*
X91681Y68709*
X91457Y68880*
X91197Y68988*
X90917Y69025*
X85970*
X85885Y69159*
X85487Y70095*
X85487Y70095*
X85646Y70254*
X85758Y70449*
X85813Y70651*
X84963*
X84112*
X84167Y70449*
X84279Y70254*
X84381Y70152*
X84438Y70095*
X84438Y70095*
X84040Y69159*
X83955Y69025*
X80619*
X80582Y69062*
Y75752*
X86489Y81658*
X86660Y81882*
X86768Y82143*
X86805Y82423*
Y86673*
X86891Y87653*
X89891*
Y90653*
Y91841*
X89834Y92131*
X89721Y92404*
X89407Y92964*
X89721Y93523*
X89834Y93796*
X89891Y94086*
Y94381*
X89834Y94671*
X89721Y94944*
X89557Y95190*
X89403Y95497*
X89721Y96063*
X89834Y96336*
X89891Y96626*
Y96921*
X89834Y97211*
X89721Y97484*
X89403Y98050*
X89557Y98357*
X89721Y98603*
X89834Y98876*
X89891Y99166*
Y99461*
X89834Y99751*
X89721Y100024*
X89407Y100584*
X89721Y101143*
X89834Y101416*
X89891Y101706*
Y102001*
X89834Y102291*
X89721Y102564*
X89407Y103124*
X89721Y103683*
X89834Y103956*
X89891Y104246*
Y104541*
X89834Y104831*
X89721Y105104*
X89407Y105664*
X89721Y106223*
X89834Y106496*
X89891Y106786*
Y107081*
X89834Y107371*
X89721Y107644*
X89407Y108204*
X89721Y108763*
X89834Y109036*
X89891Y109326*
Y109621*
X89834Y109911*
X89721Y110184*
X89557Y110430*
X89400Y110744*
X89557Y111057*
X89721Y111303*
X89834Y111576*
X89891Y111866*
Y112161*
X89834Y112451*
X89721Y112724*
X89407Y113284*
X89721Y113843*
X89834Y114116*
X89891Y114406*
Y114701*
X89834Y114991*
X89721Y115264*
X89407Y115824*
X89721Y116383*
X89834Y116656*
X89891Y116946*
Y117241*
X89834Y117531*
X89721Y117804*
X89557Y118050*
X89403Y118357*
X89721Y118923*
X89834Y119196*
X89891Y119486*
Y119781*
X89834Y120071*
X89721Y120344*
X89557Y120590*
X89355Y120886*
X89395Y121403*
X89560Y121689*
X89645Y122008*
Y122047*
X88392*
X87137*
Y122008*
X86600Y121243*
X86393Y121095*
X77724*
X77444Y121058*
X77183Y120950*
X76959Y120779*
X76006Y119825*
X72263*
X71983Y119788*
X71722Y119680*
X71498Y119509*
X69974Y117985*
X69802Y117761*
X69695Y117500*
X69658Y117221*
Y108458*
X69695Y108178*
X69802Y107917*
X69974Y107693*
X71752Y105915*
X71976Y105743*
X72237Y105636*
X72517Y105599*
X77622*
X78294Y104927*
Y89773*
X78331Y89493*
X78438Y89232*
X78548Y89090*
Y87442*
X73022Y81917*
X72851Y81693*
X72743Y81432*
X72706Y81153*
Y61756*
X72743Y61476*
X72851Y61216*
X73022Y60992*
X73692Y60322*
X73916Y60151*
X74176Y60043*
X74456Y60006*
X87436*
X88643Y58798*
X88867Y58626*
X89128Y58519*
X89408Y58482*
X113317*
X113596Y58519*
X113857Y58626*
X114081Y58798*
X115153Y59871*
X115235Y59933*
X115688Y60387*
X129159*
X129438Y60424*
X129699Y60532*
X129923Y60703*
X133352Y64132*
X133523Y64356*
X133631Y64617*
X133668Y64897*
Y67878*
X141713Y75923*
X141885Y76147*
X141993Y76407*
X142030Y76687*
Y87468*
X142343Y87781*
X142501Y87987*
X142600Y88227*
X142634Y88485*
X142600Y88743*
X142501Y88983*
X142343Y89190*
X141653Y89879*
X141447Y90037*
X141207Y90137*
X140949Y90171*
X140691Y90137*
X140451Y90037*
X140245Y89879*
X139555Y89190*
X139397Y88983*
X139297Y88743*
X139264Y88485*
X139297Y88227*
X139397Y87987*
X139555Y87781*
X139868Y87468*
Y86434*
X138852Y85619*
X138721Y85648*
X138559Y85890*
X138354Y86095*
X138112Y86257*
X137844Y86368*
X137559Y86425*
X137268*
X136983Y86368*
X136715Y86257*
X136473Y86095*
X136268Y85890*
X136106Y85648*
X136025Y85453*
X135874Y85222*
X135660Y84941*
X135200Y84686*
X134950Y84646*
X129098*
X127699Y86045*
Y99187*
X127662Y99466*
X127554Y99727*
X127383Y99951*
X126190Y101143*
Y102314*
X125937Y103330*
X125944Y103359*
Y103378*
X124841*
Y103632*
X125944*
Y103650*
X125869Y103931*
X125706Y104774*
X125921Y105216*
X126098Y105523*
X126190Y105866*
X128780Y108455*
X128951Y108679*
X129059Y108940*
X129096Y109220*
Y121177*
X129813Y121893*
X129983Y122115*
X130090Y122374*
X130127Y122651*
X130090Y122929*
X130083Y122946*
X133268Y126131*
X133286Y126124*
X133563Y126087*
X133840Y126124*
X134099Y126231*
X134321Y126401*
X135116Y127197*
X135988Y127349*
X136215Y127326*
X136670Y126682*
X136634Y126430*
X136418Y125619*
X136252Y125522*
X136213Y125484*
X137188Y124509*
X137099Y124419*
X137188Y124329*
X136213Y123354*
X136252Y123315*
X136346Y123261*
X136702Y122534*
X136804Y122088*
X136802Y122072*
X136735Y121966*
X136727Y121948*
X136716Y121934*
X136669Y121820*
X136618Y121709*
X136615Y121690*
X136608Y121673*
X136592Y121551*
X136572Y121430*
X136574Y121412*
X136571Y121393*
Y103846*
X136608Y103566*
X136716Y103306*
X136888Y103082*
X140883Y99086*
Y98994*
X140940Y98709*
X141051Y98441*
X141213Y98199*
X141418Y97994*
X141660Y97833*
X141928Y97721*
X142213Y97665*
X142504*
X142789Y97721*
X143057Y97833*
X143299Y97994*
X143504Y98199*
X143666Y98441*
X143777Y98709*
X143833Y98994*
Y99285*
X143777Y99570*
X143666Y99838*
X143504Y100080*
X143299Y100285*
X143057Y100447*
X142789Y100558*
X142504Y100615*
X142412*
X140925Y102102*
X141573Y102891*
X141660Y102833*
X141928Y102721*
X142213Y102665*
X142504*
X142789Y102721*
X143057Y102833*
X143299Y102994*
X143504Y103199*
X143666Y103441*
X143777Y103709*
X143833Y103994*
Y104285*
X143777Y104570*
X143666Y104838*
X143504Y105080*
X143299Y105285*
X143057Y105447*
X142789Y105558*
X142504Y105615*
X142412*
X141393Y106634*
Y106734*
X141871Y107656*
X142846*
X143104Y107690*
X143344Y107790*
X143550Y107948*
X143709Y108154*
X143808Y108394*
X143842Y108652*
Y109627*
X143808Y109885*
X143709Y110125*
X143550Y110331*
X143439Y110417*
Y117100*
X143877Y117537*
X144048Y117761*
X144156Y118022*
X144193Y118302*
Y124472*
X145209Y124732*
X145694Y123848*
X146686Y121837*
X147588Y119786*
X148401Y117697*
X149121Y115574*
X149749Y113423*
X150281Y111245*
X150719Y109047*
X151059Y106832*
X151303Y104604*
X151450Y102367*
X151499Y100126*
X151450Y97886*
X151303Y95649*
X151059Y93421*
X150719Y91206*
X150281Y89007*
X149749Y86830*
X149121Y84678*
X148401Y82556*
X147588Y80467*
X146686Y78415*
X145694Y76405*
X144616Y74440*
X143454Y72524*
X142208Y70660*
X140883Y68853*
X139480Y67105*
X138002Y65420*
X136452Y63801*
X134833Y62251*
X133148Y60773*
X131400Y59370*
X129593Y58045*
X127729Y56799*
X125813Y55637*
X123848Y54558*
X121837Y53567*
X119786Y52664*
X117697Y51852*
X115574Y51132*
X113423Y50504*
X111245Y49972*
X109047Y49534*
X106832Y49193*
X104604Y48949*
X102367Y48803*
X100126Y48754*
X97886Y48803*
X95649Y48949*
X93421Y49193*
X91206Y49534*
X89007Y49972*
X86830Y50504*
X84678Y51132*
X82556Y51852*
X80467Y52664*
X78415Y53567*
X76405Y54558*
X74440Y55637*
X72524Y56799*
X70660Y58045*
X68853Y59370*
X67105Y60773*
X65420Y62251*
X63801Y63801*
X62251Y65420*
X60773Y67105*
X59370Y68853*
X58045Y70660*
X56799Y72524*
X55637Y74440*
X54558Y76405*
X53567Y78415*
X52664Y80467*
X51852Y82556*
X51132Y84678*
X50504Y86830*
X49972Y89007*
X49534Y91206*
X49193Y93421*
X48949Y95649*
X48803Y97886*
X48754Y100126*
X48803Y102367*
X48949Y104604*
X49193Y106832*
X49534Y109047*
X49972Y111245*
X50504Y113423*
X51132Y115574*
X51852Y117697*
X52664Y119786*
X53567Y121837*
X54558Y123848*
X55637Y125813*
X56799Y127729*
X58045Y129593*
X59370Y131400*
X60773Y133148*
X62251Y134833*
X63801Y136452*
X65420Y138002*
X67105Y139480*
X68853Y140883*
X70660Y142208*
X72524Y143454*
X74440Y144616*
X76405Y145694*
X78415Y146686*
X80467Y147588*
X82556Y148401*
X84678Y149121*
X86830Y149749*
X89007Y150281*
X91206Y150719*
X93421Y151059*
X95649Y151303*
X97886Y151450*
X100126Y151499*
X102367Y151450*
G37*
%LNpcb_pokebot-2*%
%LPC*%
G36*
X100526Y150208D02*
X100132D01*
X99746Y150132*
X99382Y149981*
X99055Y149762*
X98776Y149483*
X98557Y149156*
X98406Y148792*
X98329Y148405*
Y148011*
X98406Y147625*
X98557Y147261*
X98776Y146934*
X99055Y146655*
X99382Y146436*
X99746Y146285*
X100132Y146208*
X100526*
X100913Y146285*
X101277Y146436*
X101604Y146655*
X101883Y146934*
X102102Y147261*
X102253Y147625*
X102329Y148011*
Y148405*
X102253Y148792*
X102102Y149156*
X101883Y149483*
X101604Y149762*
X101277Y149981*
X100913Y150132*
X100526Y150208*
G37*
G36*
X136034Y125304D02*
X135995Y125266D01*
X135813Y124951*
X135720Y124601*
Y124237*
X135813Y123887*
X135995Y123572*
X136034Y123534*
X136919Y124419*
X136034Y125304*
G37*
G36*
X113939Y126213D02*
X113644D01*
X113354Y126156*
X113081Y126043*
X112835Y125879*
X112626Y125670*
X112462Y125424*
X112349Y125151*
X112291Y124861*
Y124566*
X112349Y124276*
X112462Y124003*
X112626Y123757*
X112828Y123460*
X112788Y122943*
X112623Y122657*
X112537Y122339*
Y122301*
X113792*
X115045*
Y122339*
X114960Y122657*
X114795Y122943*
X114755Y123460*
X114957Y123757*
X115121Y124003*
X115234Y124276*
X115291Y124566*
Y124861*
X115234Y125151*
X115121Y125424*
X114957Y125670*
X114748Y125879*
X114502Y126043*
X114229Y126156*
X113939Y126213*
G37*
G36*
X131977Y120495D02*
X131614D01*
X131263Y120401*
X130948Y120219*
X130910Y120181*
X131795Y119295*
X132681Y120181*
X132642Y120219*
X132327Y120401*
X131977Y120495*
G37*
G36*
X130730Y120001D02*
X130692Y119962D01*
X130510Y119648*
X130416Y119297*
Y118934*
X130510Y118583*
X130692Y118269*
X130730Y118230*
X131616Y119116*
X130730Y120001*
G37*
G36*
X132860D02*
X131975Y119116D01*
X132860Y118230*
X132899Y118269*
X133080Y118583*
X133174Y118934*
Y119297*
X133080Y119648*
X132899Y119962*
X132860Y120001*
G37*
G36*
X131795Y118936D02*
X130910Y118051D01*
X130948Y118012*
X131263Y117831*
X131614Y117737*
X131977*
X132327Y117831*
X132642Y118012*
X132681Y118051*
X131795Y118936*
G37*
G36*
X60877Y104716D02*
X60822D01*
Y103464*
X62074*
Y103519*
X61980Y103870*
X61799Y104184*
X61542Y104441*
X61228Y104622*
X60877Y104716*
G37*
G36*
X53377D02*
X53322D01*
Y103464*
X54574*
Y103519*
X54480Y103870*
X54299Y104184*
X54042Y104441*
X53728Y104622*
X53377Y104716*
G37*
G36*
X60568D02*
X60514D01*
X60163Y104622*
X59849Y104441*
X59592Y104184*
X59410Y103870*
X59316Y103519*
Y103464*
X60568*
Y104716*
G37*
G36*
X53068D02*
X53014D01*
X52663Y104622*
X52349Y104441*
X52092Y104184*
X51910Y103870*
X51816Y103519*
Y103464*
X53068*
Y104716*
G37*
G36*
X62074Y103210D02*
X60822D01*
Y101958*
X60877*
X61228Y102052*
X61542Y102234*
X61799Y102491*
X61980Y102805*
X62074Y103156*
Y103210*
G37*
G36*
X60568D02*
X59316D01*
Y103156*
X59410Y102805*
X59592Y102491*
X59849Y102234*
X60163Y102052*
X60514Y101958*
X60568*
Y103210*
G37*
G36*
X54574D02*
X53322D01*
Y101958*
X53377*
X53728Y102052*
X54042Y102234*
X54299Y102491*
X54480Y102805*
X54574Y103156*
Y103210*
G37*
G36*
X53068D02*
X51816D01*
Y103156*
X51910Y102805*
X52092Y102491*
X52349Y102234*
X52663Y102052*
X53014Y101958*
X53068*
Y103210*
G37*
G36*
X61258Y99972D02*
X60133D01*
X59856Y99935*
X59597Y99828*
X59375Y99658*
X59205Y99436*
X59198Y99418*
X54693*
X54686Y99436*
X54516Y99658*
X54294Y99828*
X54035Y99935*
X53758Y99972*
X52633*
X52356Y99935*
X52097Y99828*
X51875Y99658*
X51705Y99436*
X51598Y99177*
X51561Y98900*
Y97775*
X51598Y97498*
X51705Y97239*
X51875Y97017*
X52097Y96847*
X52356Y96740*
X52633Y96703*
X53758*
X54035Y96740*
X54294Y96847*
X54516Y97017*
X54686Y97239*
X54693Y97257*
X59198*
X59205Y97239*
X59375Y97017*
X59597Y96847*
X59856Y96740*
X60133Y96703*
X61258*
X61535Y96740*
X61794Y96847*
X62016Y97017*
X62186Y97239*
X62193Y97257*
X69377*
X73710Y92923*
Y92694*
X73772Y92385*
X73893Y92094*
X74068Y91832*
X74291Y91609*
X74553Y91434*
X74844Y91313*
X75153Y91251*
X75468*
X75777Y91313*
X76068Y91434*
X76330Y91609*
X76553Y91832*
X76728Y92094*
X76849Y92385*
X76910Y92694*
Y93009*
X76849Y93318*
X76728Y93609*
X76553Y93871*
X76330Y94094*
X76068Y94269*
X75777Y94390*
X75468Y94451*
X75239*
X70589Y99102*
X70365Y99273*
X70104Y99381*
X69824Y99418*
X62193*
X62186Y99436*
X62016Y99658*
X61794Y99828*
X61535Y99935*
X61258Y99972*
G37*
G36*
X98999Y72401D02*
X98298D01*
Y71699*
X98999*
Y72401*
G37*
G36*
X98044D02*
X97341D01*
Y71699*
X98044*
Y72401*
G37*
G36*
X92522Y72390D02*
X91821D01*
Y71687*
X92522*
Y72390*
G37*
G36*
X91567D02*
X90864D01*
Y71687*
X91567*
Y72390*
G37*
G36*
X118249Y71755D02*
X117475D01*
Y70980*
X117696Y71039*
X117903Y71158*
X118071Y71326*
X118190Y71533*
X118249Y71755*
G37*
G36*
X117221D02*
X116446D01*
X116505Y71533*
X116624Y71326*
X116792Y71158*
X116999Y71039*
X117221Y70980*
Y71755*
G37*
G36*
X110871Y71629D02*
Y70905D01*
X111594*
X111539Y71108*
X111427Y71303*
X111268Y71462*
X111073Y71574*
X110871Y71629*
G37*
G36*
X110617D02*
X110414Y71574D01*
X110219Y71462*
X110060Y71303*
X109948Y71108*
X109893Y70905*
X110617*
Y71629*
G37*
G36*
X85090D02*
Y70905D01*
X85813*
X85791Y70985*
X85758Y71108*
X85646Y71303*
X85487Y71462*
X85292Y71574*
X85090Y71629*
G37*
G36*
X84836D02*
X84633Y71574D01*
X84438Y71462*
X84279Y71303*
X84167Y71108*
X84112Y70905*
X84836*
Y71629*
G37*
G36*
X103886Y71375D02*
Y70651D01*
X104609*
X104554Y70854*
X104442Y71049*
X104283Y71208*
X104088Y71320*
X103886Y71375*
G37*
G36*
X103632D02*
X103429Y71320D01*
X103234Y71208*
X103075Y71049*
X102963Y70854*
X102908Y70651*
X103632*
Y71375*
G37*
G36*
X111594Y70651D02*
X110871D01*
Y69928*
X111073Y69983*
X111268Y70095*
X111427Y70254*
X111539Y70449*
X111594Y70651*
G37*
G36*
X110617D02*
X109893D01*
X109948Y70449*
X110060Y70254*
X110219Y70095*
X110414Y69983*
X110617Y69928*
Y70651*
G37*
G36*
X104609Y70397D02*
X103886D01*
Y69674*
X104088Y69729*
X104283Y69841*
X104442Y70000*
X104554Y70195*
X104609Y70397*
G37*
G36*
X103632D02*
X102908D01*
X102963Y70195*
X103075Y70000*
X103234Y69841*
X103429Y69729*
X103632Y69674*
Y70397*
G37*
G36*
X100399Y54196D02*
X100005D01*
X99619Y54120*
X99255Y53969*
X98928Y53750*
X98649Y53471*
X98430Y53144*
X98279Y52780*
X98202Y52393*
Y51999*
X98279Y51613*
X98430Y51249*
X98649Y50922*
X98928Y50643*
X99255Y50424*
X99619Y50273*
X100005Y50196*
X100399*
X100786Y50273*
X101150Y50424*
X101477Y50643*
X101756Y50922*
X101975Y51249*
X102126Y51613*
X102202Y51999*
Y52393*
X102126Y52780*
X101975Y53144*
X101756Y53471*
X101477Y53750*
X101150Y53969*
X100786Y54120*
X100399Y54196*
G37*
%LNpcb_pokebot-3*%
%LPD*%
G54D10*
X140312Y117825D02*
X141469Y118982D01*
X140312Y106186D02*
Y117825D01*
X130920Y134222D02*
X135600D01*
X123571Y124333D02*
X131817Y132579D01*
X138368Y122541D02*
X138530Y122744D01*
X121539Y124841D02*
X130920Y134222D01*
X141469Y118982D02*
Y126029D01*
X138530Y122744D02*
X139827Y124041D01*
X135600Y134222D02*
X143112Y126710D01*
X140312Y106186D02*
X142358Y104140D01*
X134919Y132579D02*
X141469Y126029D01*
X134239Y130937D02*
X139827Y125349D01*
X142358Y117548D02*
X143112Y118302D01*
X137652Y121393D02*
X138368Y122541D01*
X131817Y132579D02*
X134919D01*
X139827Y124041D02*
Y125349D01*
X143112Y118302D02*
Y126710D01*
X142358Y109140D02*
Y117548D01*
X133096Y130937D02*
X134239D01*
X125213Y123054D02*
X133096Y130937D01*
X119380Y120179D02*
X121539Y122338D01*
X122665Y108146D02*
X125213Y110694D01*
X121996Y110017D02*
Y120472D01*
X119380Y107696D02*
Y120179D01*
X121996Y120472D02*
X123571Y122047D01*
X125213Y110694D02*
Y123054D01*
X123571Y122047D02*
Y124333D01*
X121539Y122338D02*
Y124841D01*
X137652Y103846D02*
Y121393D01*
Y103846D02*
X142358Y99140D01*
X98158Y72517D02*
X98171Y72528D01*
X91694Y72517D02*
X98158D01*
X89955Y70778D02*
X91694Y72517D01*
X98171Y74228D02*
Y76962D01*
X98169Y74228D02*
X102740D01*
X103730Y75218*
X98157Y74216D02*
X98169Y74228D01*
X91694Y74216D02*
X98157D01*
X98171Y72528D02*
X100460D01*
X102453Y70535*
X90130Y75778D02*
X91692Y74216D01*
X91694*
X103748Y70535D02*
X103759Y70524D01*
X102453Y70535D02*
X103748D01*
X116025Y102017D02*
X121022Y107015D01*
X113955Y102017D02*
X116025D01*
X113792Y101854D02*
X113955Y102017D01*
X115809Y99477D02*
X122665Y106334D01*
X113955Y99477D02*
X115809D01*
X113792Y99314D02*
X113955Y99477D01*
X121022Y107015D02*
Y109043D01*
X121996Y110017*
X113792Y104394D02*
X116078D01*
X119380Y107696*
X122665Y106334D02*
Y108146D01*
X119634Y100838D02*
X124841Y106045D01*
X119634Y84328D02*
Y100838D01*
X111760Y122174D02*
X113792D01*
X110617Y123317D02*
Y128651D01*
Y123317D02*
X111760Y122174D01*
X89092Y121705D02*
X89249D01*
X91186Y115189D02*
Y119769D01*
X89249Y121705D02*
X91186Y119769D01*
X88623Y122174D02*
X89092Y121705D01*
X70993Y122174D02*
X88623D01*
X87404Y120015D02*
X87621Y119797D01*
X77724Y120015D02*
X87404D01*
X87621Y119797D02*
X88227D01*
X88392Y119634*
X85725Y112522D02*
X87592Y114389D01*
X85105Y116078D02*
X85957Y116929D01*
X88227*
X87592Y114389D02*
X88227D01*
Y116929D02*
X88392Y117094D01*
X88227Y114389D02*
X88392Y114554D01*
X85725Y82423D02*
Y112522D01*
X83798Y116078D02*
X85105D01*
X83693Y84074D02*
Y91558D01*
X82804Y92447D02*
X83693Y91558D01*
X77724Y78105D02*
X83693Y84074D01*
X81788Y85471D02*
Y91139D01*
X81160Y91766D02*
X81788Y91139D01*
X79375Y89773D02*
X79629Y89519D01*
X78070Y106680D02*
X79375Y105375D01*
Y89773D02*
Y105375D01*
X81160Y91766D02*
Y109050D01*
X80102Y110109D02*
X81160Y109050D01*
X79629Y86995D02*
Y89519D01*
X82804Y104876D02*
X83820Y105892D01*
X82804Y92447D02*
Y104876D01*
X77482Y91952D02*
Y96091D01*
X77343Y91812D02*
X77482Y91952D01*
X76673Y96901D02*
X77482Y96091D01*
X77343Y87757D02*
Y91812D01*
X75438Y96901D02*
X76673D01*
X71628Y82042D02*
X77343Y87757D01*
X87884Y61087D02*
X89408Y59563D01*
X74456Y61087D02*
X87884D01*
X89408Y59563D02*
X113317D01*
X88429Y63500D02*
X89953Y61976D01*
X71628Y60960D02*
X73660Y58928D01*
X73787Y61756D02*
X74456Y61087D01*
X76488Y63500D02*
X88429D01*
X73787Y61756D02*
Y81153D01*
X89953Y61976D02*
X113406D01*
X82255Y76286D02*
X84328Y78359D01*
X89789*
X82255Y71448D02*
Y76286D01*
X128651Y83566D02*
X135128D01*
X136906Y78232D02*
Y81788D01*
X135128Y83566D02*
X136906Y81788D01*
X126111Y73406D02*
X133474Y80769D01*
Y80792D02*
X133878Y81196D01*
X126111Y68614D02*
Y73406D01*
X133878Y81196D02*
Y81414D01*
X133474Y80769D02*
Y80792D01*
X130944Y66062D02*
Y69603D01*
X129159Y61468D02*
X132588Y64897D01*
X128382Y63500D02*
X130944Y66062D01*
X115240Y61468D02*
X129159D01*
X132588Y64897D02*
Y68326D01*
X130944Y69603D02*
X138938Y77597D01*
X134747Y64643D02*
Y66548D01*
X129159Y59055D02*
X134747Y64643D01*
X115132Y59055D02*
X129159D01*
X114452Y60697D02*
X114470D01*
X113406Y61976D02*
X114049Y62618D01*
X114068*
X113317Y59563D02*
X114452Y60697D01*
X114949Y63500D02*
X128382D01*
X114068Y62618D02*
X114949Y63500D01*
X114470Y60697D02*
X115240Y61468D01*
X143002Y74803D02*
Y87644D01*
Y89327D02*
X143197Y89131D01*
X134747Y66548D02*
X143002Y74803D01*
X143197Y87839D02*
Y89131D01*
X143002Y89327D02*
Y93691D01*
Y87644D02*
X143197Y87839D01*
X93218Y81915D02*
X98171Y76962D01*
X103730Y75496D02*
X103759Y75524D01*
X103730Y75218D02*
Y75496D01*
X93218Y81915D02*
Y85979D01*
X124841Y100965D02*
X126619Y99187D01*
Y85598D02*
X128651Y83566D01*
X126619Y85598D02*
Y99187D01*
X130175Y92490D02*
Y101565D01*
X125856Y102640D02*
X129099D01*
X130175Y101565*
X124991Y103505D02*
X125856Y102640D01*
X130844Y91821D02*
X135001D01*
X130175Y92490D02*
X130844Y91821D01*
X124841Y103505D02*
X124991D01*
X122174Y99822D02*
X123159Y100807D01*
X124683*
X122174Y78486D02*
Y99822D01*
X124683Y100807D02*
X124841Y100965D01*
X71628Y60960D02*
Y82042D01*
X73787Y81153D02*
X79629Y86995D01*
X75819Y64169D02*
Y79502D01*
X81788Y85471*
X75819Y64169D02*
X76488Y63500D01*
X78393Y65786D02*
X89465D01*
X77724Y66455D02*
Y78105D01*
Y66455D02*
X78393Y65786D01*
X79502Y68614D02*
Y76200D01*
Y68614D02*
X80171Y67945D01*
X90917*
X79502Y76200D02*
X85725Y82423D01*
X128905Y70231D02*
X136906Y78232D01*
X136245Y123865D02*
X137296Y124916D01*
X131572Y119253D02*
X136184Y123865D01*
X131583Y118121D02*
Y119241D01*
X80717Y125730D02*
X84836D01*
X79066Y127381D02*
X80717Y125730D01*
X68360D02*
X72479D01*
X74130Y127381*
X79066*
X84836Y125730D02*
X85852Y126746D01*
X67691Y121031D02*
Y125060D01*
X68360Y125730*
X85852Y126746D02*
Y129759D01*
X60695Y103337D02*
X60862Y103505D01*
X68834*
X75438Y96901*
X73660Y58928D02*
X87503D01*
X89535Y56896*
X112973*
X115132Y59055*
X127635Y65786D02*
X128905Y67056D01*
X114911Y65786D02*
X127635D01*
X128905Y67056D02*
Y70231D01*
X142332Y94361D02*
X143002Y93691D01*
X137541Y94361D02*
X142332D01*
X135001Y91821D02*
X137541Y94361D01*
X106045Y80010D02*
X115316D01*
X119634Y84328*
X124841Y103505D02*
X131572Y110236D01*
Y118109*
X131583Y118121*
X128016Y109220D02*
Y121793D01*
X124841Y106045D02*
X128016Y109220D01*
X131572Y119253D02*
X131583Y119241D01*
X136184Y123865D02*
X136245D01*
X128260Y122651D02*
X133563Y127955D01*
X93218Y85979D02*
X95631Y88392D01*
Y98425*
X92964Y101092D02*
X95631Y98425D01*
X92964Y101092D02*
Y103886D01*
X94869Y105791*
Y114173*
X93218Y115824D02*
X94869Y114173D01*
X93218Y115824D02*
Y123063D01*
X91567Y124714D02*
X93218Y123063D01*
X88392Y124714D02*
X91567D01*
X91186Y115189D02*
X93091Y113284D01*
Y108204D02*
Y113284D01*
X91567Y106680D02*
X93091Y108204D01*
X91567Y99314D02*
Y106680D01*
Y99314D02*
X93599Y97282D01*
Y89916D02*
Y97282D01*
X91567Y87884D02*
X93599Y89916D01*
X91567Y80137D02*
Y87884D01*
X89789Y78359D02*
X91567Y80137D01*
X82255Y71448D02*
X82925Y70778D01*
X84963*
X92695Y66167D02*
X112155D01*
X113933Y67945*
X90917D02*
X92695Y66167D01*
X89465Y65786D02*
X90989Y64262D01*
X113387D02*
X114911Y65786D01*
X90989Y64262D02*
X113387D01*
X113933Y67945D02*
X125441D01*
X76454Y118745D02*
X77724Y120015D01*
X72263Y118745D02*
X76454D01*
X70739Y117221D02*
X72263Y118745D01*
X70739Y108458D02*
Y117221D01*
Y108458D02*
X72517Y106680D01*
X78070*
X132588Y68326D02*
X140949Y76687D01*
Y88485*
X138938Y77597D02*
Y83426D01*
X137414Y84950D02*
X138938Y83426D01*
X82528Y117348D02*
X83798Y116078D01*
X73313D02*
X76808D01*
X78078Y117348*
X72644Y110778D02*
X73313Y110109D01*
X72644Y110778D02*
Y115408D01*
X73313Y110109D02*
X80102D01*
X83820Y105892D02*
Y113122D01*
X60695Y103337D02*
Y110225D01*
X70231Y119761D02*
Y121412D01*
X60695Y110225D02*
X70231Y119761D01*
X58293Y111633D02*
X67691Y121031D01*
X56388Y111633D02*
X58293D01*
X72644Y115408D02*
X73313Y116078D01*
X78078Y117348D02*
X82528D01*
X75311Y113792D02*
X83150D01*
X83820Y113122*
X60695Y98337D02*
X69824D01*
X75311Y92851*
X53195Y98337D02*
X60695D01*
X125441Y67945D02*
X126111Y68614D01*
X117648Y73960D02*
X122174Y78486D01*
X117348Y73881D02*
X117426Y73960D01*
X117648*
X115450Y75778D02*
X117348Y73881D01*
X110744Y75778D02*
X115450D01*
X108839Y130429D02*
X110617Y128651D01*
X117305Y71882D02*
X117348D01*
X116202Y70778D02*
X117305Y71882D01*
X110728Y70778D02*
X110744D01*
X116202*
X103759Y70524D02*
X110474D01*
X110728Y70778*
X86521Y130429D02*
X108839D01*
X85852Y129759D02*
X86521Y130429D01*
X70231Y121412D02*
X70993Y122174D01*
X84963Y70778D02*
X89955D01*
X53195Y103337D02*
Y108440D01*
X56388Y111633*
X53195Y103337D02*
X60695D01*
X103759Y77724D02*
X106045Y80010D01*
X103759Y75524D02*
Y77724D01*
X84963Y75778D02*
X90130D01*
G54D11*
X100330Y148209D03*
X100203Y52197D03*
G54D12*
X75311Y92851D03*
G54D13*
X75311Y113792D03*
G54D14*
X53195Y98337D03*
X60695D03*
G54D15*
X117348Y73881D03*
G54D16*
X117348Y71882D03*
G54D17*
X137414Y84950D03*
X133878Y81414D03*
X142358Y104140D03*
Y99140D03*
G54D18*
X140949Y88485D03*
G54D19*
X124841Y100965D03*
G54D20*
X110744Y75778D03*
X84963D03*
X103759Y75524D03*
G54D21*
X137099Y124419D03*
X131795Y119116D03*
X60695Y103337D03*
X53195D03*
G54D22*
X113792Y122174D03*
X88392D03*
X113792Y124714D03*
Y91694D03*
Y94234D03*
Y96774D03*
Y99314D03*
Y101854D03*
Y104394D03*
Y106934D03*
Y109474D03*
Y112014D03*
Y114554D03*
Y117094D03*
Y119634D03*
X88392Y124714D03*
Y119634D03*
Y117094D03*
Y114554D03*
Y112014D03*
Y109474D03*
Y106934D03*
Y104394D03*
Y101854D03*
Y99314D03*
Y96774D03*
Y94234D03*
Y91694D03*
G54D23*
X124841Y103505D03*
Y106045D03*
G54D24*
X110744Y70778D03*
X103759Y70524D03*
X84963Y70778D03*
G54D25*
X98171Y72528D03*
X91694Y72517D03*
G54D26*
X98171Y74228D03*
X91694Y74216D03*
G54D27*
X133563Y127955D03*
X128260Y122651D03*
G54D28*
X113792Y89154D03*
X88392D03*
G54D29*
X142358Y109140D03*
M02*